<svg xmlns="http://www.w3.org/2000/svg" viewBox="0 0 54.94 54.94"><defs><style>.cls-1{fill:#614f51;}</style></defs><g id="Layer_2" data-name="Layer 2"><g id="стрелки"><path class="cls-1" d="M27.49,0A27.47,27.47,0,1,1,0,27.39,27.49,27.49,0,0,1,27.49,0Zm26,27.46a26,26,0,1,0-26.06,26A26,26,0,0,0,53.51,27.46Z"/><path class="cls-1" d="M34.21,27.47l-.27-.28Q27.79,21,21.64,14.81a1.43,1.43,0,0,1-.43-1.57,1.35,1.35,0,0,1,2.14-.59l.23.21L37.85,27.24l.21.22-.21.23L23.55,42.1a1.44,1.44,0,0,1-1.21.49,1.29,1.29,0,0,1-1.14-.89,1.34,1.34,0,0,1,.26-1.39,3,3,0,0,1,.25-.25L34,27.73Z"/></g></g></svg>